{
	"asset":{
		"generator":"Khronos glTF Blender I/O v4.0.44",
		"version":"2.0"
	},
	"scene":0,
	"scenes":[
		{
			"name":"Scene",
			"nodes":[
				0,
				1,
				2,
				3,
				4,
				5,
				6,
				7
			]
		}
	],
	"nodes":[
		{
			"mesh":0,
			"name":"CPD_Glasses_CPP",
			"translation":[
				0.05413675308227539,
				0,
				0
			]
		},
		{
			"mesh":1,
			"name":"CPD_Glasses_CPP_Glasses",
			"translation":[
				0.05413675308227539,
				0,
				0
			]
		},
		{
			"mesh":2,
			"name":"CPD_Arm_CPP",
			"translation":[
				0.05413675308227539,
				0,
				0
			]
		},
		{
			"mesh":3,
			"name":"CPD_Body_CPD",
			"translation":[
				0.05413675308227539,
				0,
				0
			]
		},
		{
			"mesh":4,
			"name":"CPD_Mask_CPD",
			"translation":[
				0.05413675308227539,
				0,
				0
			]
		},
		{
			"mesh":5,
			"name":"CPD_Hood_CPP",
			"translation":[
				0.05413675308227539,
				0,
				0
			]
		},
		{
			"mesh":6,
			"name":"CPD_Hat_CPP",
			"translation":[
				0.05413675308227539,
				0,
				0
			]
		},
		{
			"mesh":7,
			"name":"CPD_Head_CPD",
			"translation":[
				0.05413675308227539,
				0,
				0
			]
		}
	],
	"materials":[
		{
			"name":"material1",
			"normalTexture":{
				"index":0
			},
			"occlusionTexture":{
				"index":1
			},
			"pbrMetallicRoughness":{
				"baseColorTexture":{
					"index":2
				},
				"metallicRoughnessTexture":{
					"index":1
				},
				"roughnessFactor":0.8199999928474426
			}
		},
		{
			"alphaMode":"BLEND",
			"doubleSided":true,
			"name":"CPD_Glasses",
			"normalTexture":{
				"index":3
			},
			"pbrMetallicRoughness":{
				"baseColorFactor":[
					0.031474437564611435,
					0.031474437564611435,
					0.031474437564611435,
					0.7061402797698975
				],
				"metallicFactor":0,
				"metallicRoughnessTexture":{
					"index":4
				}
			}
		},
		{
			"name":"material2",
			"normalTexture":{
				"index":5
			},
			"occlusionTexture":{
				"index":6
			},
			"pbrMetallicRoughness":{
				"baseColorTexture":{
					"index":7
				},
				"metallicRoughnessTexture":{
					"index":6
				}
			}
		}
	],
	"meshes":[
		{
			"name":"CPD_Glasses_CPP",
			"primitives":[
				{
					"attributes":{
						"POSITION":0,
						"NORMAL":1,
						"TEXCOORD_0":2,
						"TEXCOORD_1":3,
						"TEXCOORD_2":4
					},
					"indices":5,
					"material":0
				}
			]
		},
		{
			"name":"CPD_Glasses_CPP_Glasses",
			"primitives":[
				{
					"attributes":{
						"POSITION":6,
						"NORMAL":7,
						"TEXCOORD_0":8,
						"TEXCOORD_1":9,
						"TEXCOORD_2":10
					},
					"indices":11,
					"material":1
				}
			]
		},
		{
			"name":"CPD_Arm_CPP",
			"primitives":[
				{
					"attributes":{
						"POSITION":12,
						"NORMAL":13,
						"TEXCOORD_0":14,
						"TEXCOORD_1":15,
						"TEXCOORD_2":16
					},
					"indices":17,
					"material":0
				}
			]
		},
		{
			"name":"CPD_Body_CPD",
			"primitives":[
				{
					"attributes":{
						"POSITION":18,
						"NORMAL":19,
						"TEXCOORD_0":20,
						"TEXCOORD_1":21,
						"TEXCOORD_2":22
					},
					"indices":23,
					"material":2
				}
			]
		},
		{
			"name":"CPD_Mask_CPD",
			"primitives":[
				{
					"attributes":{
						"POSITION":24,
						"NORMAL":25,
						"TEXCOORD_0":26,
						"TEXCOORD_1":27,
						"TEXCOORD_2":28
					},
					"indices":29,
					"material":2
				}
			]
		},
		{
			"name":"CPD_Hood_CPP",
			"primitives":[
				{
					"attributes":{
						"POSITION":30,
						"NORMAL":31,
						"TEXCOORD_0":32,
						"TEXCOORD_1":33,
						"TEXCOORD_2":34
					},
					"indices":35,
					"material":0
				}
			]
		},
		{
			"name":"CPD_Hat_CPP",
			"primitives":[
				{
					"attributes":{
						"POSITION":36,
						"NORMAL":37,
						"TEXCOORD_0":38,
						"TEXCOORD_1":39,
						"TEXCOORD_2":40
					},
					"indices":41,
					"material":0
				}
			]
		},
		{
			"name":"CPD_Head_CPD",
			"primitives":[
				{
					"attributes":{
						"POSITION":42,
						"NORMAL":43,
						"TEXCOORD_0":44,
						"TEXCOORD_1":45,
						"TEXCOORD_2":46
					},
					"indices":47,
					"material":2
				}
			]
		}
	],
	"textures":[
		{
			"sampler":0,
			"source":0
		},
		{
			"sampler":0,
			"source":1
		},
		{
			"sampler":0,
			"source":2
		},
		{
			"sampler":0,
			"source":0
		},
		{
			"sampler":0,
			"source":3
		},
		{
			"sampler":0,
			"source":4
		},
		{
			"sampler":0,
			"source":5
		},
		{
			"sampler":0,
			"source":6
		}
	],
	"images":[
		{
			"mimeType":"image/png",
			"name":"Image_1",
			"uri":"textures/Image_1.png"
		},
		{
			"mimeType":"image/png",
			"name":"Image_3",
			"uri":"textures/Image_3.png"
		},
		{
			"mimeType":"image/png",
			"name":"Image_2",
			"uri":"textures/Image_2.png"
		},
		{
			"mimeType":"image/png",
			"name":"Image_0",
			"uri":"textures/Image_0.png"
		},
		{
			"mimeType":"image/png",
			"name":"Image_6",
			"uri":"textures/Image_6.png"
		},
		{
			"mimeType":"image/png",
			"name":"Image_5",
			"uri":"textures/Image_5.png"
		},
		{
			"mimeType":"image/png",
			"name":"Image_4",
			"uri":"textures/Image_4.png"
		}
	],
	"accessors":[
		{
			"bufferView":0,
			"componentType":5126,
			"count":922,
			"max":[
				0.08065492659807205,
				1.6967705488204956,
				0.07813350111246109
			],
			"min":[
				-0.08065491169691086,
				1.6644959449768066,
				-0.06101509928703308
			],
			"type":"VEC3"
		},
		{
			"bufferView":1,
			"componentType":5126,
			"count":922,
			"type":"VEC3"
		},
		{
			"bufferView":2,
			"componentType":5126,
			"count":922,
			"type":"VEC2"
		},
		{
			"bufferView":3,
			"componentType":5126,
			"count":922,
			"type":"VEC2"
		},
		{
			"bufferView":4,
			"componentType":5126,
			"count":922,
			"type":"VEC2"
		},
		{
			"bufferView":5,
			"componentType":5123,
			"count":2556,
			"type":"SCALAR"
		},
		{
			"bufferView":6,
			"componentType":5126,
			"count":422,
			"max":[
				0.06818228214979172,
				1.696280837059021,
				0.07583282887935638
			],
			"min":[
				-0.06818226724863052,
				1.66521155834198,
				0.03207717090845108
			],
			"type":"VEC3"
		},
		{
			"bufferView":7,
			"componentType":5126,
			"count":422,
			"type":"VEC3"
		},
		{
			"bufferView":8,
			"componentType":5126,
			"count":422,
			"type":"VEC2"
		},
		{
			"bufferView":9,
			"componentType":5126,
			"count":422,
			"type":"VEC2"
		},
		{
			"bufferView":10,
			"componentType":5126,
			"count":422,
			"type":"VEC2"
		},
		{
			"bufferView":11,
			"componentType":5123,
			"count":1668,
			"type":"SCALAR"
		},
		{
			"bufferView":12,
			"componentType":5126,
			"count":3979,
			"max":[
				0.5717587471008301,
				1.508523941040039,
				0.0877724215388298
			],
			"min":[
				0.11570822447538376,
				0.8113759160041809,
				-0.16082054376602173
			],
			"type":"VEC3"
		},
		{
			"bufferView":13,
			"componentType":5126,
			"count":3979,
			"type":"VEC3"
		},
		{
			"bufferView":14,
			"componentType":5126,
			"count":3979,
			"type":"VEC2"
		},
		{
			"bufferView":15,
			"componentType":5126,
			"count":3979,
			"type":"VEC2"
		},
		{
			"bufferView":16,
			"componentType":5126,
			"count":3979,
			"type":"VEC2"
		},
		{
			"bufferView":17,
			"componentType":5123,
			"count":14607,
			"type":"SCALAR"
		},
		{
			"bufferView":18,
			"componentType":5126,
			"count":7104,
			"max":[
				0.22960858047008514,
				1.7020914554595947,
				0.15846678614616394
			],
			"min":[
				-0.5469147562980652,
				6.876082625240088e-05,
				-0.17614765465259552
			],
			"type":"VEC3"
		},
		{
			"bufferView":19,
			"componentType":5126,
			"count":7104,
			"type":"VEC3"
		},
		{
			"bufferView":20,
			"componentType":5126,
			"count":7104,
			"type":"VEC2"
		},
		{
			"bufferView":21,
			"componentType":5126,
			"count":7104,
			"type":"VEC2"
		},
		{
			"bufferView":22,
			"componentType":5126,
			"count":7104,
			"type":"VEC2"
		},
		{
			"bufferView":23,
			"componentType":5123,
			"count":31185,
			"type":"SCALAR"
		},
		{
			"bufferView":24,
			"componentType":5126,
			"count":1399,
			"max":[
				0.07994458824396133,
				1.7162587642669678,
				0.10398583114147186
			],
			"min":[
				-0.07994449883699417,
				1.55960214138031,
				-0.13375525176525116
			],
			"type":"VEC3"
		},
		{
			"bufferView":25,
			"componentType":5126,
			"count":1399,
			"type":"VEC3"
		},
		{
			"bufferView":26,
			"componentType":5126,
			"count":1399,
			"type":"VEC2"
		},
		{
			"bufferView":27,
			"componentType":5126,
			"count":1399,
			"type":"VEC2"
		},
		{
			"bufferView":28,
			"componentType":5126,
			"count":1399,
			"type":"VEC2"
		},
		{
			"bufferView":29,
			"componentType":5123,
			"count":4662,
			"type":"SCALAR"
		},
		{
			"bufferView":30,
			"componentType":5126,
			"count":1182,
			"max":[
				0.15145424008369446,
				1.585431694984436,
				0.03268823400139809
			],
			"min":[
				-0.15593314170837402,
				1.4024800062179565,
				-0.21629208326339722
			],
			"type":"VEC3"
		},
		{
			"bufferView":31,
			"componentType":5126,
			"count":1182,
			"type":"VEC3"
		},
		{
			"bufferView":32,
			"componentType":5126,
			"count":1182,
			"type":"VEC2"
		},
		{
			"bufferView":33,
			"componentType":5126,
			"count":1182,
			"type":"VEC2"
		},
		{
			"bufferView":34,
			"componentType":5126,
			"count":1182,
			"type":"VEC2"
		},
		{
			"bufferView":35,
			"componentType":5123,
			"count":6096,
			"type":"SCALAR"
		},
		{
			"bufferView":36,
			"componentType":5126,
			"count":612,
			"max":[
				0.09264705330133438,
				1.8134381771087646,
				0.0756787583231926
			],
			"min":[
				-0.09345579892396927,
				1.5993497371673584,
				-0.1447865217924118
			],
			"type":"VEC3"
		},
		{
			"bufferView":37,
			"componentType":5126,
			"count":612,
			"type":"VEC3"
		},
		{
			"bufferView":38,
			"componentType":5126,
			"count":612,
			"type":"VEC2"
		},
		{
			"bufferView":39,
			"componentType":5126,
			"count":612,
			"type":"VEC2"
		},
		{
			"bufferView":40,
			"componentType":5126,
			"count":612,
			"type":"VEC2"
		},
		{
			"bufferView":41,
			"componentType":5123,
			"count":3330,
			"type":"SCALAR"
		},
		{
			"bufferView":42,
			"componentType":5126,
			"count":1605,
			"max":[
				0.0884842574596405,
				1.7971689701080322,
				0.09623991698026657
			],
			"min":[
				-0.08848418295383453,
				1.5143108367919922,
				-0.13241426646709442
			],
			"type":"VEC3"
		},
		{
			"bufferView":43,
			"componentType":5126,
			"count":1605,
			"type":"VEC3"
		},
		{
			"bufferView":44,
			"componentType":5126,
			"count":1605,
			"type":"VEC2"
		},
		{
			"bufferView":45,
			"componentType":5126,
			"count":1605,
			"type":"VEC2"
		},
		{
			"bufferView":46,
			"componentType":5126,
			"count":1605,
			"type":"VEC2"
		},
		{
			"bufferView":47,
			"componentType":5123,
			"count":8868,
			"type":"SCALAR"
		}
	],
	"bufferViews":[
		{
			"buffer":0,
			"byteLength":11064,
			"byteOffset":0,
			"target":34962
		},
		{
			"buffer":0,
			"byteLength":11064,
			"byteOffset":11064,
			"target":34962
		},
		{
			"buffer":0,
			"byteLength":7376,
			"byteOffset":22128,
			"target":34962
		},
		{
			"buffer":0,
			"byteLength":7376,
			"byteOffset":29504,
			"target":34962
		},
		{
			"buffer":0,
			"byteLength":7376,
			"byteOffset":36880,
			"target":34962
		},
		{
			"buffer":0,
			"byteLength":5112,
			"byteOffset":44256,
			"target":34963
		},
		{
			"buffer":0,
			"byteLength":5064,
			"byteOffset":49368,
			"target":34962
		},
		{
			"buffer":0,
			"byteLength":5064,
			"byteOffset":54432,
			"target":34962
		},
		{
			"buffer":0,
			"byteLength":3376,
			"byteOffset":59496,
			"target":34962
		},
		{
			"buffer":0,
			"byteLength":3376,
			"byteOffset":62872,
			"target":34962
		},
		{
			"buffer":0,
			"byteLength":3376,
			"byteOffset":66248,
			"target":34962
		},
		{
			"buffer":0,
			"byteLength":3336,
			"byteOffset":69624,
			"target":34963
		},
		{
			"buffer":0,
			"byteLength":47748,
			"byteOffset":72960,
			"target":34962
		},
		{
			"buffer":0,
			"byteLength":47748,
			"byteOffset":120708,
			"target":34962
		},
		{
			"buffer":0,
			"byteLength":31832,
			"byteOffset":168456,
			"target":34962
		},
		{
			"buffer":0,
			"byteLength":31832,
			"byteOffset":200288,
			"target":34962
		},
		{
			"buffer":0,
			"byteLength":31832,
			"byteOffset":232120,
			"target":34962
		},
		{
			"buffer":0,
			"byteLength":29214,
			"byteOffset":263952,
			"target":34963
		},
		{
			"buffer":0,
			"byteLength":85248,
			"byteOffset":293168,
			"target":34962
		},
		{
			"buffer":0,
			"byteLength":85248,
			"byteOffset":378416,
			"target":34962
		},
		{
			"buffer":0,
			"byteLength":56832,
			"byteOffset":463664,
			"target":34962
		},
		{
			"buffer":0,
			"byteLength":56832,
			"byteOffset":520496,
			"target":34962
		},
		{
			"buffer":0,
			"byteLength":56832,
			"byteOffset":577328,
			"target":34962
		},
		{
			"buffer":0,
			"byteLength":62370,
			"byteOffset":634160,
			"target":34963
		},
		{
			"buffer":0,
			"byteLength":16788,
			"byteOffset":696532,
			"target":34962
		},
		{
			"buffer":0,
			"byteLength":16788,
			"byteOffset":713320,
			"target":34962
		},
		{
			"buffer":0,
			"byteLength":11192,
			"byteOffset":730108,
			"target":34962
		},
		{
			"buffer":0,
			"byteLength":11192,
			"byteOffset":741300,
			"target":34962
		},
		{
			"buffer":0,
			"byteLength":11192,
			"byteOffset":752492,
			"target":34962
		},
		{
			"buffer":0,
			"byteLength":9324,
			"byteOffset":763684,
			"target":34963
		},
		{
			"buffer":0,
			"byteLength":14184,
			"byteOffset":773008,
			"target":34962
		},
		{
			"buffer":0,
			"byteLength":14184,
			"byteOffset":787192,
			"target":34962
		},
		{
			"buffer":0,
			"byteLength":9456,
			"byteOffset":801376,
			"target":34962
		},
		{
			"buffer":0,
			"byteLength":9456,
			"byteOffset":810832,
			"target":34962
		},
		{
			"buffer":0,
			"byteLength":9456,
			"byteOffset":820288,
			"target":34962
		},
		{
			"buffer":0,
			"byteLength":12192,
			"byteOffset":829744,
			"target":34963
		},
		{
			"buffer":0,
			"byteLength":7344,
			"byteOffset":841936,
			"target":34962
		},
		{
			"buffer":0,
			"byteLength":7344,
			"byteOffset":849280,
			"target":34962
		},
		{
			"buffer":0,
			"byteLength":4896,
			"byteOffset":856624,
			"target":34962
		},
		{
			"buffer":0,
			"byteLength":4896,
			"byteOffset":861520,
			"target":34962
		},
		{
			"buffer":0,
			"byteLength":4896,
			"byteOffset":866416,
			"target":34962
		},
		{
			"buffer":0,
			"byteLength":6660,
			"byteOffset":871312,
			"target":34963
		},
		{
			"buffer":0,
			"byteLength":19260,
			"byteOffset":877972,
			"target":34962
		},
		{
			"buffer":0,
			"byteLength":19260,
			"byteOffset":897232,
			"target":34962
		},
		{
			"buffer":0,
			"byteLength":12840,
			"byteOffset":916492,
			"target":34962
		},
		{
			"buffer":0,
			"byteLength":12840,
			"byteOffset":929332,
			"target":34962
		},
		{
			"buffer":0,
			"byteLength":12840,
			"byteOffset":942172,
			"target":34962
		},
		{
			"buffer":0,
			"byteLength":17736,
			"byteOffset":955012,
			"target":34963
		}
	],
	"samplers":[
		{
			"magFilter":9729,
			"minFilter":9987
		}
	],
	"buffers":[
		{
			"byteLength":972748,
			"uri":"cyberpunk_character.bin"
		}
	]
}
